STARTFONT 2.1
COMMENT # Copyright (c) 1999, Thomas A. Fine
COMMENT # Copyright (c) 2015, rnndxb wxcy
COMMENT # Copyright (c) 2023, Alex Myczko <alex@aiei.ch>
COMMENT #
COMMENT # License to copy, modify, and distribute for both commercial and
COMMENT # non-commercial use is herby granted, provided this notice
COMMENT # is preserved.
COMMENT #
COMMENT # Email to my last name at head.cfa.harvard.edu
COMMENT # http://hea-www.harvard.edu/~fine/
COMMENT #
COMMENT # Produced with bdfedit, a tcl/tk font editing program
COMMENT # written by Thomas A. Fine
FONT -Atari800-Medium-R-Medium--8-8-75-75-c-80-iso10646-1
SIZE 8 75 75
FONTBOUNDINGBOX 6 9 -1 -1
STARTPROPERTIES 9
FAMILY_NAME Atari800
WEIGHT_NAME Medium
COPYRIGHT Copyright 1999, 2015 Atari800 authors
FOUNDRY Misc
FONT_ASCENT 7
FONT_DESCENT 1
POINT_SIZE 8
X_HEIGHT 0
CAP_HEIGHT 0
ENDPROPERTIES
CHARS 392
STARTCHAR U+0000
ENCODING 0
SWIDTH 666 0
DWIDTH 4 0
BBX 3 5 0 0
BITMAP
A0
00
A0
00
A0
ENDCHAR
STARTCHAR U+0001
ENCODING 1
SWIDTH 666 0
DWIDTH 4 0
BBX 4 5 0 1
BITMAP
20
70
F0
70
20
ENDCHAR
STARTCHAR U+0002
ENCODING 2
SWIDTH 666 0
DWIDTH 4 0
BBX 3 7 1 -1
BITMAP
40
A0
40
A0
40
A0
40
ENDCHAR
STARTCHAR U+001C
ENCODING 28
SWIDTH 666 0
DWIDTH 4 0
BBX 4 5 0 1
BITMAP
F0
50
50
50
50
ENDCHAR
STARTCHAR U+0020
ENCODING 32
SWIDTH 666 0
DWIDTH 4 0
BBX 0 0 0 0
BITMAP
ENDCHAR
STARTCHAR U+0021
ENCODING 33
SWIDTH 666 0
DWIDTH 4 0
BBX 1 6 1 0
BITMAP
80
80
80
80
00
80
ENDCHAR
STARTCHAR U+0022
ENCODING 34
SWIDTH 666 0
DWIDTH 4 0
BBX 3 2 0 4
BITMAP
A0
A0
ENDCHAR
STARTCHAR U+0023
ENCODING 35
SWIDTH 666 0
DWIDTH 4 0
BBX 3 6 0 0
BITMAP
A0
E0
A0
A0
E0
A0
ENDCHAR
STARTCHAR U+0024
ENCODING 36
SWIDTH 666 0
DWIDTH 4 0
BBX 3 8 0 -1
BITMAP
40
40
A0
40
20
A0
40
40
ENDCHAR
STARTCHAR U+0025
ENCODING 37
SWIDTH 666 0
DWIDTH 4 0
BBX 3 6 0 0
BITMAP
A0
20
40
40
80
A0
ENDCHAR
STARTCHAR U+0026
ENCODING 38
SWIDTH 666 0
DWIDTH 4 0
BBX 3 7 0 0
BITMAP
40
A0
40
A0
A0
C0
60
ENDCHAR
STARTCHAR U+0027
ENCODING 39
SWIDTH 666 0
DWIDTH 4 0
BBX 1 2 1 4
BITMAP
80
80
ENDCHAR
STARTCHAR U+0028
ENCODING 40
SWIDTH 666 0
DWIDTH 4 0
BBX 2 6 1 0
BITMAP
40
80
80
80
80
40
ENDCHAR
STARTCHAR U+0029
ENCODING 41
SWIDTH 666 0
DWIDTH 4 0
BBX 2 6 0 0
BITMAP
80
40
40
40
40
80
ENDCHAR
STARTCHAR U+002A
ENCODING 42
SWIDTH 666 0
DWIDTH 4 0
BBX 3 5 0 1
BITMAP
A0
40
E0
40
A0
ENDCHAR
STARTCHAR U+002B
ENCODING 43
SWIDTH 666 0
DWIDTH 4 0
BBX 3 5 0 1
BITMAP
40
40
E0
40
40
ENDCHAR
STARTCHAR U+002C
ENCODING 44
SWIDTH 666 0
DWIDTH 4 0
BBX 2 3 0 -1
BITMAP
40
40
80
ENDCHAR
STARTCHAR U+002D
ENCODING 45
SWIDTH 666 0
DWIDTH 4 0
BBX 3 1 0 3
BITMAP
E0
ENDCHAR
STARTCHAR U+002E
ENCODING 46
SWIDTH 666 0
DWIDTH 4 0
BBX 1 2 1 0
BITMAP
80
80
ENDCHAR
STARTCHAR U+002F
ENCODING 47
SWIDTH 666 0
DWIDTH 4 0
BBX 3 6 0 0
BITMAP
20
20
40
40
80
80
ENDCHAR
STARTCHAR U+0030
ENCODING 48
SWIDTH 666 0
DWIDTH 4 0
BBX 3 6 0 0
BITMAP
40
A0
E0
A0
A0
40
ENDCHAR
STARTCHAR U+0031
ENCODING 49
SWIDTH 666 0
DWIDTH 4 0
BBX 3 6 0 0
BITMAP
40
C0
40
40
40
E0
ENDCHAR
STARTCHAR U+0032
ENCODING 50
SWIDTH 666 0
DWIDTH 4 0
BBX 3 6 0 0
BITMAP
40
A0
20
40
80
E0
ENDCHAR
STARTCHAR U+0033
ENCODING 51
SWIDTH 666 0
DWIDTH 4 0
BBX 3 6 0 0
BITMAP
E0
20
40
20
A0
40
ENDCHAR
STARTCHAR U+0034
ENCODING 52
SWIDTH 666 0
DWIDTH 4 0
BBX 3 6 0 0
BITMAP
20
60
A0
E0
20
20
ENDCHAR
STARTCHAR U+0035
ENCODING 53
SWIDTH 666 0
DWIDTH 4 0
BBX 3 6 0 0
BITMAP
E0
80
C0
20
A0
40
ENDCHAR
STARTCHAR U+0036
ENCODING 54
SWIDTH 666 0
DWIDTH 4 0
BBX 3 6 0 0
BITMAP
60
80
C0
A0
A0
40
ENDCHAR
STARTCHAR U+0037
ENCODING 55
SWIDTH 666 0
DWIDTH 4 0
BBX 3 6 0 0
BITMAP
E0
20
20
40
40
40
ENDCHAR
STARTCHAR U+0038
ENCODING 56
SWIDTH 666 0
DWIDTH 4 0
BBX 3 6 0 0
BITMAP
40
A0
40
A0
A0
40
ENDCHAR
STARTCHAR U+0039
ENCODING 57
SWIDTH 666 0
DWIDTH 4 0
BBX 3 6 0 0
BITMAP
40
A0
A0
60
20
C0
ENDCHAR
STARTCHAR U+003A
ENCODING 58
SWIDTH 666 0
DWIDTH 4 0
BBX 1 4 1 1
BITMAP
80
00
00
80
ENDCHAR
STARTCHAR U+003B
ENCODING 59
SWIDTH 666 0
DWIDTH 4 0
BBX 2 5 0 0
BITMAP
40
00
00
40
80
ENDCHAR
STARTCHAR U+003C
ENCODING 60
SWIDTH 666 0
DWIDTH 4 0
BBX 3 5 0 0
BITMAP
20
40
80
40
20
ENDCHAR
STARTCHAR U+003D
ENCODING 61
SWIDTH 666 0
DWIDTH 4 0
BBX 3 3 0 2
BITMAP
E0
00
E0
ENDCHAR
STARTCHAR U+003E
ENCODING 62
SWIDTH 666 0
DWIDTH 4 0
BBX 3 5 0 0
BITMAP
80
40
20
40
80
ENDCHAR
STARTCHAR U+003F
ENCODING 63
SWIDTH 666 0
DWIDTH 4 0
BBX 3 6 0 0
BITMAP
40
A0
20
40
00
40
ENDCHAR
STARTCHAR U+0040
ENCODING 64
SWIDTH 666 0
DWIDTH 4 0
BBX 3 6 0 0
BITMAP
40
A0
A0
80
80
60
ENDCHAR
STARTCHAR U+0041
ENCODING 65
SWIDTH 666 0
DWIDTH 4 0
BBX 3 6 0 0
BITMAP
40
A0
A0
E0
A0
A0
ENDCHAR
STARTCHAR U+0042
ENCODING 66
SWIDTH 666 0
DWIDTH 4 0
BBX 3 6 0 0
BITMAP
C0
A0
C0
A0
A0
C0
ENDCHAR
STARTCHAR U+0043
ENCODING 67
SWIDTH 666 0
DWIDTH 4 0
BBX 3 6 0 0
BITMAP
40
A0
80
80
A0
40
ENDCHAR
STARTCHAR U+0044
ENCODING 68
SWIDTH 666 0
DWIDTH 4 0
BBX 3 6 0 0
BITMAP
C0
A0
A0
A0
A0
C0
ENDCHAR
STARTCHAR U+0045
ENCODING 69
SWIDTH 666 0
DWIDTH 4 0
BBX 3 6 0 0
BITMAP
E0
80
E0
80
80
E0
ENDCHAR
STARTCHAR U+0046
ENCODING 70
SWIDTH 666 0
DWIDTH 4 0
BBX 3 6 0 0
BITMAP
E0
80
E0
80
80
80
ENDCHAR
STARTCHAR U+0047
ENCODING 71
SWIDTH 666 0
DWIDTH 4 0
BBX 3 6 0 0
BITMAP
40
A0
80
A0
A0
40
ENDCHAR
STARTCHAR U+0048
ENCODING 72
SWIDTH 666 0
DWIDTH 4 0
BBX 3 6 0 0
BITMAP
A0
A0
E0
A0
A0
A0
ENDCHAR
STARTCHAR U+0049
ENCODING 73
SWIDTH 666 0
DWIDTH 4 0
BBX 3 6 0 0
BITMAP
E0
40
40
40
40
E0
ENDCHAR
STARTCHAR U+004A
ENCODING 74
SWIDTH 666 0
DWIDTH 4 0
BBX 3 6 0 0
BITMAP
20
20
20
20
A0
40
ENDCHAR
STARTCHAR U+004B
ENCODING 75
SWIDTH 666 0
DWIDTH 4 0
BBX 3 6 0 0
BITMAP
A0
A0
C0
A0
A0
A0
ENDCHAR
STARTCHAR U+004C
ENCODING 76
SWIDTH 666 0
DWIDTH 4 0
BBX 3 6 0 0
BITMAP
80
80
80
80
80
E0
ENDCHAR
STARTCHAR U+004D
ENCODING 77
SWIDTH 666 0
DWIDTH 4 0
BBX 3 6 0 0
BITMAP
A0
E0
A0
A0
A0
A0
ENDCHAR
STARTCHAR U+004E
ENCODING 78
SWIDTH 666 0
DWIDTH 4 0
BBX 3 6 0 0
BITMAP
20
A0
E0
E0
A0
80
ENDCHAR
STARTCHAR U+004F
ENCODING 79
SWIDTH 666 0
DWIDTH 4 0
BBX 3 6 0 0
BITMAP
40
A0
A0
A0
A0
40
ENDCHAR
STARTCHAR U+0050
ENCODING 80
SWIDTH 666 0
DWIDTH 4 0
BBX 3 6 0 0
BITMAP
C0
A0
A0
C0
80
80
ENDCHAR
STARTCHAR U+0051
ENCODING 81
SWIDTH 666 0
DWIDTH 4 0
BBX 3 6 0 0
BITMAP
40
A0
A0
A0
C0
60
ENDCHAR
STARTCHAR U+0052
ENCODING 82
SWIDTH 666 0
DWIDTH 4 0
BBX 3 6 0 0
BITMAP
C0
A0
A0
C0
A0
A0
ENDCHAR
STARTCHAR U+0053
ENCODING 83
SWIDTH 666 0
DWIDTH 4 0
BBX 3 6 0 0
BITMAP
40
A0
40
20
A0
40
ENDCHAR
STARTCHAR U+0054
ENCODING 84
SWIDTH 666 0
DWIDTH 4 0
BBX 3 6 0 0
BITMAP
E0
40
40
40
40
40
ENDCHAR
STARTCHAR U+0055
ENCODING 85
SWIDTH 666 0
DWIDTH 4 0
BBX 3 6 0 0
BITMAP
A0
A0
A0
A0
A0
E0
ENDCHAR
STARTCHAR U+0056
ENCODING 86
SWIDTH 666 0
DWIDTH 4 0
BBX 3 6 0 0
BITMAP
A0
A0
A0
A0
A0
40
ENDCHAR
STARTCHAR U+0057
ENCODING 87
SWIDTH 666 0
DWIDTH 4 0
BBX 3 6 0 0
BITMAP
A0
A0
A0
A0
E0
A0
ENDCHAR
STARTCHAR U+0058
ENCODING 88
SWIDTH 666 0
DWIDTH 4 0
BBX 3 6 0 0
BITMAP
A0
A0
40
A0
A0
A0
ENDCHAR
STARTCHAR U+0059
ENCODING 89
SWIDTH 666 0
DWIDTH 4 0
BBX 3 6 0 0
BITMAP
A0
A0
40
40
40
40
ENDCHAR
STARTCHAR U+005A
ENCODING 90
SWIDTH 666 0
DWIDTH 4 0
BBX 3 6 0 0
BITMAP
E0
20
40
40
80
E0
ENDCHAR
STARTCHAR U+005B
ENCODING 91
SWIDTH 666 0
DWIDTH 4 0
BBX 2 6 1 0
BITMAP
C0
80
80
80
80
C0
ENDCHAR
STARTCHAR U+005C
ENCODING 92
SWIDTH 666 0
DWIDTH 4 0
BBX 3 6 0 0
BITMAP
80
80
40
40
20
20
ENDCHAR
STARTCHAR U+005D
ENCODING 93
SWIDTH 666 0
DWIDTH 4 0
BBX 2 6 0 0
BITMAP
C0
40
40
40
40
C0
ENDCHAR
STARTCHAR U+005E
ENCODING 94
SWIDTH 666 0
DWIDTH 4 0
BBX 3 2 0 4
BITMAP
40
A0
ENDCHAR
STARTCHAR U+005F
ENCODING 95
SWIDTH 666 0
DWIDTH 4 0
BBX 4 1 0 -1
BITMAP
F0
ENDCHAR
STARTCHAR U+0060
ENCODING 96
SWIDTH 666 0
DWIDTH 4 0
BBX 2 2 0 4
BITMAP
80
40
ENDCHAR
STARTCHAR U+0061
ENCODING 97
SWIDTH 666 0
DWIDTH 4 0
BBX 3 5 0 0
BITMAP
C0
20
60
A0
60
ENDCHAR
STARTCHAR U+0062
ENCODING 98
SWIDTH 666 0
DWIDTH 4 0
BBX 3 6 0 0
BITMAP
80
80
C0
A0
A0
C0
ENDCHAR
STARTCHAR U+0063
ENCODING 99
SWIDTH 666 0
DWIDTH 4 0
BBX 3 5 0 0
BITMAP
60
80
80
80
60
ENDCHAR
STARTCHAR U+0064
ENCODING 100
SWIDTH 666 0
DWIDTH 4 0
BBX 3 6 0 0
BITMAP
20
20
60
A0
A0
60
ENDCHAR
STARTCHAR U+0065
ENCODING 101
SWIDTH 666 0
DWIDTH 4 0
BBX 3 5 0 0
BITMAP
40
A0
E0
80
60
ENDCHAR
STARTCHAR U+0066
ENCODING 102
SWIDTH 666 0
DWIDTH 4 0
BBX 3 6 0 0
BITMAP
20
40
E0
40
40
40
ENDCHAR
STARTCHAR U+0067
ENCODING 103
SWIDTH 666 0
DWIDTH 4 0
BBX 3 6 0 -1
BITMAP
60
A0
A0
60
20
C0
ENDCHAR
STARTCHAR U+0068
ENCODING 104
SWIDTH 666 0
DWIDTH 4 0
BBX 3 6 0 0
BITMAP
80
80
C0
A0
A0
A0
ENDCHAR
STARTCHAR U+0069
ENCODING 105
SWIDTH 666 0
DWIDTH 4 0
BBX 3 6 0 0
BITMAP
40
00
C0
40
40
E0
ENDCHAR
STARTCHAR U+006A
ENCODING 106
SWIDTH 666 0
DWIDTH 4 0
BBX 3 7 0 -1
BITMAP
20
00
60
20
20
20
C0
ENDCHAR
STARTCHAR U+006B
ENCODING 107
SWIDTH 666 0
DWIDTH 4 0
BBX 3 6 0 0
BITMAP
80
80
A0
C0
A0
A0
ENDCHAR
STARTCHAR U+006C
ENCODING 108
SWIDTH 666 0
DWIDTH 4 0
BBX 1 6 1 0
BITMAP
80
80
80
80
80
80
ENDCHAR
STARTCHAR U+006D
ENCODING 109
SWIDTH 666 0
DWIDTH 4 0
BBX 3 5 0 0
BITMAP
A0
E0
A0
A0
A0
ENDCHAR
STARTCHAR U+006E
ENCODING 110
SWIDTH 666 0
DWIDTH 4 0
BBX 3 5 0 0
BITMAP
C0
A0
A0
A0
A0
ENDCHAR
STARTCHAR U+006F
ENCODING 111
SWIDTH 666 0
DWIDTH 4 0
BBX 3 5 0 0
BITMAP
40
A0
A0
A0
40
ENDCHAR
STARTCHAR U+0070
ENCODING 112
SWIDTH 666 0
DWIDTH 4 0
BBX 3 6 0 -1
BITMAP
C0
A0
A0
C0
80
80
ENDCHAR
STARTCHAR U+0071
ENCODING 113
SWIDTH 666 0
DWIDTH 4 0
BBX 3 6 0 -1
BITMAP
60
A0
A0
60
20
20
ENDCHAR
STARTCHAR U+0072
ENCODING 114
SWIDTH 666 0
DWIDTH 4 0
BBX 3 5 0 0
BITMAP
60
80
80
80
80
ENDCHAR
STARTCHAR U+0073
ENCODING 115
SWIDTH 666 0
DWIDTH 4 0
BBX 3 5 0 0
BITMAP
60
80
40
20
C0
ENDCHAR
STARTCHAR U+0074
ENCODING 116
SWIDTH 666 0
DWIDTH 4 0
BBX 3 6 0 0
BITMAP
40
40
E0
40
40
40
ENDCHAR
STARTCHAR U+0075
ENCODING 117
SWIDTH 666 0
DWIDTH 4 0
BBX 3 5 0 0
BITMAP
A0
A0
A0
A0
E0
ENDCHAR
STARTCHAR U+0076
ENCODING 118
SWIDTH 666 0
DWIDTH 4 0
BBX 3 5 0 0
BITMAP
A0
A0
A0
A0
40
ENDCHAR
STARTCHAR U+0077
ENCODING 119
SWIDTH 666 0
DWIDTH 4 0
BBX 3 5 0 0
BITMAP
A0
A0
A0
E0
A0
ENDCHAR
STARTCHAR U+0078
ENCODING 120
SWIDTH 666 0
DWIDTH 4 0
BBX 3 5 0 0
BITMAP
A0
A0
40
A0
A0
ENDCHAR
STARTCHAR U+0079
ENCODING 121
SWIDTH 666 0
DWIDTH 4 0
BBX 3 6 0 -1
BITMAP
A0
A0
A0
60
20
C0
ENDCHAR
STARTCHAR U+007A
ENCODING 122
SWIDTH 666 0
DWIDTH 4 0
BBX 3 5 0 0
BITMAP
E0
20
40
80
E0
ENDCHAR
STARTCHAR U+007B
ENCODING 123
SWIDTH 666 0
DWIDTH 4 0
BBX 3 7 0 0
BITMAP
20
40
40
80
40
40
20
ENDCHAR
STARTCHAR U+007C
ENCODING 124
SWIDTH 666 0
DWIDTH 4 0
BBX 1 7 1 0
BITMAP
80
80
80
80
80
80
80
ENDCHAR
STARTCHAR U+007D
ENCODING 125
SWIDTH 666 0
DWIDTH 4 0
BBX 3 7 0 0
BITMAP
80
40
40
20
40
40
80
ENDCHAR
STARTCHAR U+007E
ENCODING 126
SWIDTH 666 0
DWIDTH 4 0
BBX 3 2 0 3
BITMAP
C0
60
ENDCHAR
STARTCHAR U+007F
ENCODING 127
SWIDTH 666 0
DWIDTH 4 0
BBX 0 0 0 0
BITMAP
ENDCHAR
STARTCHAR U+00A1
ENCODING 161
SWIDTH 666 0
DWIDTH 4 0
BBX 1 6 1 0
BITMAP
80
00
80
80
80
80
ENDCHAR
STARTCHAR U+00A2
ENCODING 162
SWIDTH 666 0
DWIDTH 4 0
BBX 3 7 0 -1
BITMAP
40
60
80
80
80
60
40
ENDCHAR
STARTCHAR U+00A3
ENCODING 163
SWIDTH 666 0
DWIDTH 4 0
BBX 4 7 0 0
BITMAP
30
40
E0
40
70
D0
40
ENDCHAR
STARTCHAR U+00A6
ENCODING 166
SWIDTH 666 0
DWIDTH 4 0
BBX 1 7 1 0
BITMAP
80
80
80
00
80
80
80
ENDCHAR
STARTCHAR U+00A8
ENCODING 168
SWIDTH 0 0
DWIDTH 0 0
BBX 0 0 0 0
BITMAP
ENDCHAR
STARTCHAR U+00AC
ENCODING 172
SWIDTH 666 0
DWIDTH 4 0
BBX 3 2 0 3
BITMAP
E0
20
ENDCHAR
STARTCHAR U+00B0
ENCODING 176
SWIDTH 666 0
DWIDTH 4 0
BBX 3 4 0 2
BITMAP
E0
A0
A0
E0
ENDCHAR
STARTCHAR U+00B1
ENCODING 177
SWIDTH 666 0
DWIDTH 4 0
BBX 3 5 1 1
BITMAP
40
E0
40
00
E0
ENDCHAR
STARTCHAR U+00B5
ENCODING 181
SWIDTH 0 0
DWIDTH 0 0
BBX 0 0 0 0
BITMAP
ENDCHAR
STARTCHAR U+00B7
ENCODING 183
SWIDTH 666 0
DWIDTH 4 0
BBX 1 1 1 3
BITMAP
80
ENDCHAR
STARTCHAR U+00BA
ENCODING 186
SWIDTH 0 0
DWIDTH 0 0
BBX 0 0 0 0
BITMAP
ENDCHAR
STARTCHAR U+00BF
ENCODING 191
SWIDTH 666 0
DWIDTH 4 0
BBX 3 6 0 0
BITMAP
40
00
40
80
A0
40
ENDCHAR
STARTCHAR U+00C2
ENCODING 194
SWIDTH 666 0
DWIDTH 4 0
BBX 3 8 0 0
BITMAP
40
A0
40
A0
A0
E0
A0
A0
ENDCHAR
STARTCHAR U+00C4
ENCODING 196
SWIDTH 666 0
DWIDTH 4 0
BBX 3 7 0 0
BITMAP
A0
40
A0
A0
E0
A0
A0
ENDCHAR
STARTCHAR U+00C5
ENCODING 197
SWIDTH 666 0
DWIDTH 4 0
BBX 3 8 0 0
BITMAP
40
A0
40
A0
A0
E0
A0
A0
ENDCHAR
STARTCHAR U+00C6
ENCODING 198
SWIDTH 666 0
DWIDTH 4 0
BBX 4 6 0 0
BITMAP
70
A0
A0
F0
A0
B0
ENDCHAR
STARTCHAR U+00C7
ENCODING 199
SWIDTH 666 0
DWIDTH 4 0
BBX 3 7 0 -1
BITMAP
40
A0
80
80
A0
40
40
ENDCHAR
STARTCHAR U+00CC
ENCODING 204
SWIDTH 666 0
DWIDTH 4 0
BBX 3 8 0 0
BITMAP
20
40
00
E0
40
40
40
E0
ENDCHAR
STARTCHAR U+00CD
ENCODING 205
SWIDTH 666 0
DWIDTH 4 0
BBX 3 8 0 0
BITMAP
80
40
00
E0
40
40
40
E0
ENDCHAR
STARTCHAR U+00CE
ENCODING 206
SWIDTH 666 0
DWIDTH 4 0
BBX 3 8 0 0
BITMAP
40
A0
00
E0
40
40
40
E0
ENDCHAR
STARTCHAR U+00CF
ENCODING 207
SWIDTH 666 0
DWIDTH 4 0
BBX 3 7 0 0
BITMAP
40
00
E0
40
40
40
E0
ENDCHAR
STARTCHAR U+00D6
ENCODING 214
SWIDTH 666 0
DWIDTH 4 0
BBX 3 7 0 0
BITMAP
A0
40
A0
A0
A0
A0
40
ENDCHAR
STARTCHAR U+00D7
ENCODING 215
SWIDTH 666 0
DWIDTH 4 0
BBX 3 3 0 2
BITMAP
A0
40
A0
ENDCHAR
STARTCHAR U+00D9
ENCODING 217
SWIDTH 666 0
DWIDTH 4 0
BBX 3 8 0 0
BITMAP
80
40
00
A0
A0
A0
A0
E0
ENDCHAR
STARTCHAR U+00DA
ENCODING 218
SWIDTH 666 0
DWIDTH 4 0
BBX 3 8 0 0
BITMAP
20
40
00
A0
A0
A0
A0
E0
ENDCHAR
STARTCHAR U+00DB
ENCODING 219
SWIDTH 666 0
DWIDTH 4 0
BBX 3 8 0 0
BITMAP
40
A0
00
A0
A0
A0
A0
E0
ENDCHAR
STARTCHAR U+00DC
ENCODING 220
SWIDTH 666 0
DWIDTH 4 0
BBX 3 7 0 0
BITMAP
A0
00
A0
A0
A0
A0
E0
ENDCHAR
STARTCHAR U+00E0
ENCODING 224
SWIDTH 666 0
DWIDTH 4 0
BBX 3 8 0 0
BITMAP
80
40
00
C0
20
60
A0
60
ENDCHAR
STARTCHAR U+00E1
ENCODING 225
SWIDTH 666 0
DWIDTH 4 0
BBX 3 8 0 0
BITMAP
20
40
00
C0
20
60
A0
60
ENDCHAR
STARTCHAR U+00E2
ENCODING 226
SWIDTH 666 0
DWIDTH 4 0
BBX 3 8 0 0
BITMAP
40
A0
00
C0
20
60
A0
60
ENDCHAR
STARTCHAR U+00E4
ENCODING 228
SWIDTH 666 0
DWIDTH 4 0
BBX 3 7 0 0
BITMAP
A0
00
C0
20
60
A0
60
ENDCHAR
STARTCHAR U+00E7
ENCODING 231
SWIDTH 666 0
DWIDTH 4 0
BBX 3 6 0 -1
BITMAP
60
80
80
80
60
40
ENDCHAR
STARTCHAR U+00E8
ENCODING 232
SWIDTH 666 0
DWIDTH 4 0
BBX 3 8 0 0
BITMAP
80
40
00
40
A0
E0
80
60
ENDCHAR
STARTCHAR U+00E9
ENCODING 233
SWIDTH 666 0
DWIDTH 4 0
BBX 3 8 0 0
BITMAP
20
40
00
40
A0
E0
80
60
ENDCHAR
STARTCHAR U+00EA
ENCODING 234
SWIDTH 666 0
DWIDTH 4 0
BBX 3 8 0 0
BITMAP
40
A0
00
40
A0
E0
80
60
ENDCHAR
STARTCHAR U+00EB
ENCODING 235
SWIDTH 666 0
DWIDTH 4 0
BBX 3 7 0 0
BITMAP
A0
00
40
A0
E0
80
60
ENDCHAR
STARTCHAR U+00EF
ENCODING 239
SWIDTH 666 0
DWIDTH 4 0
BBX 3 6 0 0
BITMAP
A0
00
C0
40
40
E0
ENDCHAR
STARTCHAR U+00F2
ENCODING 242
SWIDTH 666 0
DWIDTH 4 0
BBX 3 8 0 0
BITMAP
80
40
00
40
A0
A0
A0
40
ENDCHAR
STARTCHAR U+00F3
ENCODING 243
SWIDTH 666 0
DWIDTH 4 0
BBX 3 8 0 0
BITMAP
20
40
00
40
A0
A0
A0
40
ENDCHAR
STARTCHAR U+00F4
ENCODING 244
SWIDTH 666 0
DWIDTH 4 0
BBX 3 8 0 0
BITMAP
40
A0
00
40
A0
A0
A0
40
ENDCHAR
STARTCHAR U+00F6
ENCODING 246
SWIDTH 666 0
DWIDTH 4 0
BBX 3 7 0 0
BITMAP
A0
00
40
A0
A0
A0
40
ENDCHAR
STARTCHAR U+00F7
ENCODING 247
SWIDTH 666 0
DWIDTH 4 0
BBX 3 5 0 1
BITMAP
40
00
E0
00
40
ENDCHAR
STARTCHAR U+00F9
ENCODING 249
SWIDTH 666 0
DWIDTH 4 0
BBX 3 8 0 0
BITMAP
80
40
00
A0
A0
A0
A0
E0
ENDCHAR
STARTCHAR U+00FA
ENCODING 250
SWIDTH 666 0
DWIDTH 4 0
BBX 3 8 0 0
BITMAP
20
40
00
A0
A0
A0
A0
E0
ENDCHAR
STARTCHAR U+00FB
ENCODING 251
SWIDTH 666 0
DWIDTH 4 0
BBX 3 8 0 0
BITMAP
40
A0
00
A0
A0
A0
A0
E0
ENDCHAR
STARTCHAR U+00FC
ENCODING 252
SWIDTH 666 0
DWIDTH 4 0
BBX 3 7 0 0
BITMAP
A0
00
A0
A0
A0
A0
E0
ENDCHAR
STARTCHAR U+00FD
ENCODING 253
SWIDTH 666 0
DWIDTH 4 0
BBX 3 9 0 -1
BITMAP
20
40
00
A0
A0
A0
60
20
C0
ENDCHAR
STARTCHAR U+00FF
ENCODING 255
SWIDTH 666 0
DWIDTH 4 0
BBX 3 8 0 -1
BITMAP
A0
00
A0
A0
A0
60
20
C0
ENDCHAR
STARTCHAR U+0104
ENCODING 260
SWIDTH 0 0
DWIDTH 0 0
BBX 0 0 0 0
BITMAP
ENDCHAR
STARTCHAR U+0131
ENCODING 305
SWIDTH 666 0
DWIDTH 4 0
BBX 3 4 0 0
BITMAP
C0
40
40
E0
ENDCHAR
STARTCHAR U+0141
ENCODING 321
SWIDTH 666 0
DWIDTH 4 0
BBX 4 6 -1 0
BITMAP
40
40
60
C0
40
70
ENDCHAR
STARTCHAR U+0142
ENCODING 322
SWIDTH 666 0
DWIDTH 4 0
BBX 3 6 0 0
BITMAP
40
40
60
C0
40
40
ENDCHAR
STARTCHAR U+0152
ENCODING 338
SWIDTH 666 0
DWIDTH 4 0
BBX 4 6 0 0
BITMAP
70
A0
B0
A0
A0
70
ENDCHAR
STARTCHAR U+0153
ENCODING 339
SWIDTH 666 0
DWIDTH 4 0
BBX 5 5 -1 0
BITMAP
50
A8
B8
A0
58
ENDCHAR
STARTCHAR U+015E
ENCODING 350
SWIDTH 666 0
DWIDTH 4 0
BBX 3 7 0 -1
BITMAP
40
A0
40
20
A0
40
40
ENDCHAR
STARTCHAR U+015F
ENCODING 351
SWIDTH 666 0
DWIDTH 4 0
BBX 3 6 0 -1
BITMAP
60
80
40
20
C0
40
ENDCHAR
STARTCHAR U+0170
ENCODING 368
SWIDTH 0 0
DWIDTH 0 0
BBX 0 0 0 0
BITMAP
ENDCHAR
STARTCHAR U+02C7
ENCODING 711
SWIDTH 666 0
DWIDTH 4 0
BBX 3 2 0 4
BITMAP
A0
40
ENDCHAR
STARTCHAR U+0405
ENCODING 1029
SWIDTH 666 0
DWIDTH 4 0
BBX 3 6 0 0
BITMAP
40
A0
40
20
A0
40
ENDCHAR
STARTCHAR U+0410
ENCODING 1040
SWIDTH 666 0
DWIDTH 4 0
BBX 3 6 0 0
BITMAP
40
A0
A0
E0
A0
A0
ENDCHAR
STARTCHAR U+0412
ENCODING 1042
SWIDTH 666 0
DWIDTH 4 0
BBX 3 6 0 0
BITMAP
C0
A0
C0
A0
A0
C0
ENDCHAR
STARTCHAR U+0413
ENCODING 1043
SWIDTH 666 0
DWIDTH 4 0
BBX 3 6 0 0
BITMAP
E0
80
80
80
80
80
ENDCHAR
STARTCHAR U+0415
ENCODING 1045
SWIDTH 666 0
DWIDTH 4 0
BBX 3 6 0 0
BITMAP
E0
80
E0
80
80
E0
ENDCHAR
STARTCHAR U+0418
ENCODING 1048
SWIDTH 666 0
DWIDTH 4 0
BBX 3 6 0 0
BITMAP
80
A0
E0
E0
A0
20
ENDCHAR
STARTCHAR U+041A
ENCODING 1050
SWIDTH 666 0
DWIDTH 4 0
BBX 3 6 0 0
BITMAP
A0
A0
C0
A0
A0
A0
ENDCHAR
STARTCHAR U+041B
ENCODING 1051
SWIDTH 666 0
DWIDTH 4 0
BBX 4 6 -1 0
BITMAP
70
50
50
50
50
90
ENDCHAR
STARTCHAR U+041D
ENCODING 1053
SWIDTH 666 0
DWIDTH 4 0
BBX 3 6 0 0
BITMAP
A0
A0
E0
A0
A0
A0
ENDCHAR
STARTCHAR U+041E
ENCODING 1054
SWIDTH 666 0
DWIDTH 4 0
BBX 3 6 0 0
BITMAP
40
A0
A0
A0
A0
40
ENDCHAR
STARTCHAR U+041F
ENCODING 1055
SWIDTH 666 0
DWIDTH 4 0
BBX 3 6 0 0
BITMAP
E0
A0
A0
A0
A0
A0
ENDCHAR
STARTCHAR U+0420
ENCODING 1056
SWIDTH 666 0
DWIDTH 4 0
BBX 3 6 0 0
BITMAP
C0
A0
A0
C0
80
80
ENDCHAR
STARTCHAR U+0421
ENCODING 1057
SWIDTH 666 0
DWIDTH 4 0
BBX 3 6 0 0
BITMAP
40
A0
80
80
A0
40
ENDCHAR
STARTCHAR U+0422
ENCODING 1058
SWIDTH 666 0
DWIDTH 4 0
BBX 3 6 0 0
BITMAP
E0
40
40
40
40
40
ENDCHAR
STARTCHAR U+0425
ENCODING 1061
SWIDTH 0 0
DWIDTH 0 0
BBX 0 0 0 0
BITMAP
ENDCHAR
STARTCHAR U+042A
ENCODING 1066
SWIDTH 666 0
DWIDTH 4 0
BBX 4 6 -1 0
BITMAP
C0
40
60
50
50
60
ENDCHAR
STARTCHAR U+042B
ENCODING 1067
SWIDTH 666 0
DWIDTH 4 0
BBX 5 6 0 0
BITMAP
88
88
C8
A8
A8
C8
ENDCHAR
STARTCHAR U+042C
ENCODING 1068
SWIDTH 666 0
DWIDTH 4 0
BBX 3 6 0 0
BITMAP
80
80
C0
A0
A0
C0
ENDCHAR
STARTCHAR U+042F
ENCODING 1071
SWIDTH 666 0
DWIDTH 4 0
BBX 3 6 0 0
BITMAP
60
A0
A0
60
A0
A0
ENDCHAR
STARTCHAR U+0430
ENCODING 1072
SWIDTH 666 0
DWIDTH 4 0
BBX 3 5 0 0
BITMAP
C0
20
60
A0
60
ENDCHAR
STARTCHAR U+0432
ENCODING 1074
SWIDTH 666 0
DWIDTH 4 0
BBX 3 5 0 0
BITMAP
C0
A0
C0
A0
C0
ENDCHAR
STARTCHAR U+0433
ENCODING 1075
SWIDTH 666 0
DWIDTH 4 0
BBX 3 5 0 0
BITMAP
E0
80
80
80
80
ENDCHAR
STARTCHAR U+0435
ENCODING 1077
SWIDTH 666 0
DWIDTH 4 0
BBX 3 5 0 0
BITMAP
40
A0
E0
80
60
ENDCHAR
STARTCHAR U+0438
ENCODING 1080
SWIDTH 666 0
DWIDTH 4 0
BBX 3 5 0 0
BITMAP
80
A0
E0
A0
20
ENDCHAR
STARTCHAR U+043A
ENCODING 1082
SWIDTH 666 0
DWIDTH 4 0
BBX 3 5 0 0
BITMAP
A0
A0
C0
A0
A0
ENDCHAR
STARTCHAR U+043B
ENCODING 1083
SWIDTH 666 0
DWIDTH 4 0
BBX 4 5 -1 0
BITMAP
70
50
50
50
90
ENDCHAR
STARTCHAR U+043C
ENCODING 1084
SWIDTH 666 0
DWIDTH 4 0
BBX 3 5 0 0
BITMAP
A0
E0
A0
A0
A0
ENDCHAR
STARTCHAR U+043D
ENCODING 1085
SWIDTH 666 0
DWIDTH 4 0
BBX 3 5 0 0
BITMAP
A0
A0
E0
A0
A0
ENDCHAR
STARTCHAR U+043E
ENCODING 1086
SWIDTH 666 0
DWIDTH 4 0
BBX 3 5 0 0
BITMAP
40
A0
A0
A0
40
ENDCHAR
STARTCHAR U+043F
ENCODING 1087
SWIDTH 666 0
DWIDTH 4 0
BBX 3 5 0 0
BITMAP
E0
A0
A0
A0
A0
ENDCHAR
STARTCHAR U+0440
ENCODING 1088
SWIDTH 666 0
DWIDTH 4 0
BBX 3 6 0 -1
BITMAP
C0
A0
A0
C0
80
80
ENDCHAR
STARTCHAR U+0441
ENCODING 1089
SWIDTH 666 0
DWIDTH 4 0
BBX 3 5 0 0
BITMAP
60
80
80
80
60
ENDCHAR
STARTCHAR U+0442
ENCODING 1090
SWIDTH 666 0
DWIDTH 4 0
BBX 3 5 0 0
BITMAP
E0
40
40
40
40
ENDCHAR
STARTCHAR U+0443
ENCODING 1091
SWIDTH 666 0
DWIDTH 4 0
BBX 3 6 0 -1
BITMAP
A0
A0
A0
60
20
C0
ENDCHAR
STARTCHAR U+044A
ENCODING 1098
SWIDTH 666 0
DWIDTH 4 0
BBX 4 5 -1 0
BITMAP
C0
60
50
50
60
ENDCHAR
STARTCHAR U+044B
ENCODING 1099
SWIDTH 666 0
DWIDTH 4 0
BBX 5 5 0 0
BITMAP
88
C8
A8
A8
C8
ENDCHAR
STARTCHAR U+044C
ENCODING 1100
SWIDTH 666 0
DWIDTH 4 0
BBX 3 5 0 0
BITMAP
80
C0
A0
A0
C0
ENDCHAR
STARTCHAR U+044F
ENCODING 1103
SWIDTH 666 0
DWIDTH 4 0
BBX 3 5 0 0
BITMAP
60
A0
A0
60
A0
ENDCHAR
STARTCHAR U+2018
ENCODING 8216
SWIDTH 666 0
DWIDTH 4 0
BBX 2 3 1 3
BITMAP
40
80
80
ENDCHAR
STARTCHAR U+2019
ENCODING 8217
SWIDTH 666 0
DWIDTH 4 0
BBX 2 3 0 3
BITMAP
40
40
80
ENDCHAR
STARTCHAR U+2260
ENCODING 8800
SWIDTH 666 0
DWIDTH 4 0
BBX 4 5 0 1
BITMAP
10
F0
20
F0
40
ENDCHAR
STARTCHAR U+2264
ENCODING 8804
SWIDTH 666 0
DWIDTH 4 0
BBX 3 6 1 0
BITMAP
20
40
80
40
20
E0
ENDCHAR
STARTCHAR U+2265
ENCODING 8805
SWIDTH 666 0
DWIDTH 4 0
BBX 3 6 1 0
BITMAP
80
40
20
40
80
E0
ENDCHAR
STARTCHAR U+2409
ENCODING 9225
SWIDTH 666 0
DWIDTH 4 0
BBX 3 8 1 -1
BITMAP
A0
A0
E0
A0
A0
60
20
20
ENDCHAR
STARTCHAR U+240A
ENCODING 9226
SWIDTH 666 0
DWIDTH 4 0
BBX 4 8 0 -1
BITMAP
80
80
80
E0
30
20
30
20
ENDCHAR
STARTCHAR U+240B
ENCODING 9227
SWIDTH 666 0
DWIDTH 4 0
BBX 4 8 0 -1
BITMAP
A0
A0
A0
40
30
10
10
10
ENDCHAR
STARTCHAR U+240C
ENCODING 9228
SWIDTH 666 0
DWIDTH 4 0
BBX 4 8 0 -1
BITMAP
E0
80
C0
B0
A0
30
20
20
ENDCHAR
STARTCHAR U+240D
ENCODING 9229
SWIDTH 666 0
DWIDTH 4 0
BBX 4 8 0 -1
BITMAP
60
80
60
00
30
20
30
20
ENDCHAR
STARTCHAR U+2424
ENCODING 9252
SWIDTH 666 0
DWIDTH 4 0
BBX 4 8 0 -1
BITMAP
90
D0
B0
90
20
20
20
30
ENDCHAR
STARTCHAR U+2500
ENCODING 9472
SWIDTH 666 0
DWIDTH 4 0
BBX 4 1 0 2
BITMAP
F0
ENDCHAR
STARTCHAR U+2501
ENCODING 9473
SWIDTH 666 0
DWIDTH 4 0
BBX 4 2 0 2
BITMAP
F0
F0
ENDCHAR
STARTCHAR U+2502
ENCODING 9474
SWIDTH 666 0
DWIDTH 4 0
BBX 1 8 1 -1
BITMAP
80
80
80
80
80
80
80
80
ENDCHAR
STARTCHAR U+2503
ENCODING 9475
SWIDTH 666 0
DWIDTH 4 0
BBX 2 8 1 -1
BITMAP
C0
C0
C0
C0
C0
C0
C0
C0
ENDCHAR
STARTCHAR U+2504
ENCODING 9476
SWIDTH 666 0
DWIDTH 4 0
BBX 3 1 0 2
BITMAP
A0
ENDCHAR
STARTCHAR U+2505
ENCODING 9477
SWIDTH 666 0
DWIDTH 4 0
BBX 3 2 0 2
BITMAP
A0
A0
ENDCHAR
STARTCHAR U+2506
ENCODING 9478
SWIDTH 666 0
DWIDTH 4 0
BBX 1 8 1 -1
BITMAP
80
80
00
80
80
00
80
80
ENDCHAR
STARTCHAR U+2507
ENCODING 9479
SWIDTH 666 0
DWIDTH 4 0
BBX 2 8 1 -1
BITMAP
C0
C0
00
C0
C0
00
C0
C0
ENDCHAR
STARTCHAR U+2508
ENCODING 9480
SWIDTH 666 0
DWIDTH 4 0
BBX 3 1 0 2
BITMAP
A0
ENDCHAR
STARTCHAR U+2509
ENCODING 9481
SWIDTH 666 0
DWIDTH 4 0
BBX 3 2 0 2
BITMAP
A0
A0
ENDCHAR
STARTCHAR U+250A
ENCODING 9482
SWIDTH 666 0
DWIDTH 4 0
BBX 1 8 1 -1
BITMAP
80
80
00
80
80
00
80
80
ENDCHAR
STARTCHAR U+250B
ENCODING 9483
SWIDTH 666 0
DWIDTH 4 0
BBX 2 8 1 -1
BITMAP
C0
C0
00
C0
C0
00
C0
C0
ENDCHAR
STARTCHAR U+250C
ENCODING 9484
SWIDTH 666 0
DWIDTH 4 0
BBX 3 4 1 -1
BITMAP
E0
80
80
80
ENDCHAR
STARTCHAR U+250D
ENCODING 9485
SWIDTH 666 0
DWIDTH 4 0
BBX 3 5 1 -1
BITMAP
E0
E0
80
80
80
ENDCHAR
STARTCHAR U+250E
ENCODING 9486
SWIDTH 666 0
DWIDTH 4 0
BBX 3 4 1 -1
BITMAP
E0
C0
C0
C0
ENDCHAR
STARTCHAR U+250F
ENCODING 9487
SWIDTH 666 0
DWIDTH 4 0
BBX 3 5 1 -1
BITMAP
E0
E0
C0
C0
C0
ENDCHAR
STARTCHAR U+2510
ENCODING 9488
SWIDTH 666 0
DWIDTH 4 0
BBX 2 4 0 -1
BITMAP
C0
40
40
40
ENDCHAR
STARTCHAR U+2511
ENCODING 9489
SWIDTH 666 0
DWIDTH 4 0
BBX 2 5 0 -1
BITMAP
C0
C0
40
40
40
ENDCHAR
STARTCHAR U+2512
ENCODING 9490
SWIDTH 666 0
DWIDTH 4 0
BBX 3 4 0 -1
BITMAP
E0
60
60
60
ENDCHAR
STARTCHAR U+2513
ENCODING 9491
SWIDTH 666 0
DWIDTH 4 0
BBX 3 5 0 -1
BITMAP
E0
E0
60
60
60
ENDCHAR
STARTCHAR U+2514
ENCODING 9492
SWIDTH 666 0
DWIDTH 4 0
BBX 3 5 1 2
BITMAP
80
80
80
80
E0
ENDCHAR
STARTCHAR U+2515
ENCODING 9493
SWIDTH 666 0
DWIDTH 4 0
BBX 3 5 1 2
BITMAP
80
80
80
E0
E0
ENDCHAR
STARTCHAR U+2516
ENCODING 9494
SWIDTH 666 0
DWIDTH 4 0
BBX 3 5 1 2
BITMAP
C0
C0
C0
C0
E0
ENDCHAR
STARTCHAR U+2517
ENCODING 9495
SWIDTH 666 0
DWIDTH 4 0
BBX 3 5 1 2
BITMAP
C0
C0
C0
E0
E0
ENDCHAR
STARTCHAR U+2518
ENCODING 9496
SWIDTH 666 0
DWIDTH 4 0
BBX 2 5 0 2
BITMAP
40
40
40
40
C0
ENDCHAR
STARTCHAR U+2519
ENCODING 9497
SWIDTH 666 0
DWIDTH 4 0
BBX 2 5 0 2
BITMAP
40
40
40
C0
C0
ENDCHAR
STARTCHAR U+251A
ENCODING 9498
SWIDTH 666 0
DWIDTH 4 0
BBX 3 5 0 2
BITMAP
60
60
60
60
E0
ENDCHAR
STARTCHAR U+251B
ENCODING 9499
SWIDTH 666 0
DWIDTH 4 0
BBX 3 5 0 2
BITMAP
60
60
60
E0
E0
ENDCHAR
STARTCHAR U+251C
ENCODING 9500
SWIDTH 666 0
DWIDTH 4 0
BBX 3 8 1 -1
BITMAP
80
80
80
80
E0
80
80
80
ENDCHAR
STARTCHAR U+251D
ENCODING 9501
SWIDTH 666 0
DWIDTH 4 0
BBX 3 8 1 -1
BITMAP
80
80
80
E0
E0
80
80
80
ENDCHAR
STARTCHAR U+251E
ENCODING 9502
SWIDTH 666 0
DWIDTH 4 0
BBX 3 8 1 -1
BITMAP
C0
C0
C0
C0
E0
80
80
80
ENDCHAR
STARTCHAR U+251F
ENCODING 9503
SWIDTH 666 0
DWIDTH 4 0
BBX 3 8 1 -1
BITMAP
80
80
80
80
E0
C0
C0
C0
ENDCHAR
STARTCHAR U+2520
ENCODING 9504
SWIDTH 666 0
DWIDTH 4 0
BBX 3 8 1 -1
BITMAP
C0
C0
C0
C0
E0
C0
C0
C0
ENDCHAR
STARTCHAR U+2521
ENCODING 9505
SWIDTH 666 0
DWIDTH 4 0
BBX 3 8 1 -1
BITMAP
C0
C0
C0
E0
E0
80
80
80
ENDCHAR
STARTCHAR U+2522
ENCODING 9506
SWIDTH 666 0
DWIDTH 4 0
BBX 3 8 1 -1
BITMAP
80
80
80
E0
E0
C0
C0
C0
ENDCHAR
STARTCHAR U+2523
ENCODING 9507
SWIDTH 666 0
DWIDTH 4 0
BBX 3 8 1 -1
BITMAP
C0
C0
C0
E0
E0
C0
C0
C0
ENDCHAR
STARTCHAR U+2524
ENCODING 9508
SWIDTH 666 0
DWIDTH 4 0
BBX 2 8 0 -1
BITMAP
40
40
40
40
C0
40
40
40
ENDCHAR
STARTCHAR U+2525
ENCODING 9509
SWIDTH 666 0
DWIDTH 4 0
BBX 2 8 0 -1
BITMAP
40
40
40
C0
C0
40
40
40
ENDCHAR
STARTCHAR U+2526
ENCODING 9510
SWIDTH 666 0
DWIDTH 4 0
BBX 3 8 0 -1
BITMAP
60
60
60
60
E0
40
40
40
ENDCHAR
STARTCHAR U+2527
ENCODING 9511
SWIDTH 666 0
DWIDTH 4 0
BBX 3 8 0 -1
BITMAP
40
40
40
40
E0
60
60
60
ENDCHAR
STARTCHAR U+2528
ENCODING 9512
SWIDTH 666 0
DWIDTH 4 0
BBX 3 8 0 -1
BITMAP
60
60
60
60
E0
60
60
60
ENDCHAR
STARTCHAR U+2529
ENCODING 9513
SWIDTH 666 0
DWIDTH 4 0
BBX 3 8 0 -1
BITMAP
60
60
60
E0
E0
40
40
40
ENDCHAR
STARTCHAR U+252A
ENCODING 9514
SWIDTH 666 0
DWIDTH 4 0
BBX 3 8 0 -1
BITMAP
40
40
40
E0
E0
60
60
60
ENDCHAR
STARTCHAR U+252B
ENCODING 9515
SWIDTH 666 0
DWIDTH 4 0
BBX 3 8 0 -1
BITMAP
60
60
60
E0
E0
60
60
60
ENDCHAR
STARTCHAR U+252C
ENCODING 9516
SWIDTH 666 0
DWIDTH 4 0
BBX 4 4 0 -1
BITMAP
F0
40
40
40
ENDCHAR
STARTCHAR U+252D
ENCODING 9517
SWIDTH 666 0
DWIDTH 4 0
BBX 4 5 0 -1
BITMAP
E0
F0
20
20
20
ENDCHAR
STARTCHAR U+252E
ENCODING 9518
SWIDTH 666 0
DWIDTH 4 0
BBX 4 5 0 -1
BITMAP
70
F0
40
40
40
ENDCHAR
STARTCHAR U+252F
ENCODING 9519
SWIDTH 666 0
DWIDTH 4 0
BBX 4 5 0 -1
BITMAP
F0
F0
40
40
40
ENDCHAR
STARTCHAR U+2530
ENCODING 9520
SWIDTH 666 0
DWIDTH 4 0
BBX 4 4 0 -1
BITMAP
F0
60
60
60
ENDCHAR
STARTCHAR U+2531
ENCODING 9521
SWIDTH 666 0
DWIDTH 4 0
BBX 4 5 0 -1
BITMAP
E0
F0
60
60
60
ENDCHAR
STARTCHAR U+2532
ENCODING 9522
SWIDTH 666 0
DWIDTH 4 0
BBX 4 5 0 -1
BITMAP
70
F0
60
60
60
ENDCHAR
STARTCHAR U+2533
ENCODING 9523
SWIDTH 666 0
DWIDTH 4 0
BBX 4 5 0 -1
BITMAP
F0
F0
60
60
60
ENDCHAR
STARTCHAR U+2534
ENCODING 9524
SWIDTH 666 0
DWIDTH 4 0
BBX 4 5 0 2
BITMAP
40
40
40
40
F0
ENDCHAR
STARTCHAR U+2535
ENCODING 9525
SWIDTH 666 0
DWIDTH 4 0
BBX 4 5 0 2
BITMAP
40
40
40
C0
F0
ENDCHAR
STARTCHAR U+2536
ENCODING 9526
SWIDTH 666 0
DWIDTH 4 0
BBX 4 5 0 2
BITMAP
40
40
40
70
F0
ENDCHAR
STARTCHAR U+2537
ENCODING 9527
SWIDTH 666 0
DWIDTH 4 0
BBX 4 5 0 2
BITMAP
40
40
40
F0
F0
ENDCHAR
STARTCHAR U+2538
ENCODING 9528
SWIDTH 666 0
DWIDTH 4 0
BBX 4 5 0 2
BITMAP
60
60
60
60
F0
ENDCHAR
STARTCHAR U+2539
ENCODING 9529
SWIDTH 666 0
DWIDTH 4 0
BBX 4 5 0 2
BITMAP
60
60
60
E0
F0
ENDCHAR
STARTCHAR U+253A
ENCODING 9530
SWIDTH 666 0
DWIDTH 4 0
BBX 4 5 0 2
BITMAP
60
60
60
70
F0
ENDCHAR
STARTCHAR U+253B
ENCODING 9531
SWIDTH 666 0
DWIDTH 4 0
BBX 4 5 0 2
BITMAP
60
60
60
F0
F0
ENDCHAR
STARTCHAR U+253C
ENCODING 9532
SWIDTH 666 0
DWIDTH 4 0
BBX 4 8 0 -1
BITMAP
40
40
40
40
F0
40
40
40
ENDCHAR
STARTCHAR U+253D
ENCODING 9533
SWIDTH 666 0
DWIDTH 4 0
BBX 4 8 0 -1
BITMAP
40
40
40
C0
F0
40
40
40
ENDCHAR
STARTCHAR U+253E
ENCODING 9534
SWIDTH 666 0
DWIDTH 4 0
BBX 4 8 0 -1
BITMAP
40
40
40
70
F0
40
40
40
ENDCHAR
STARTCHAR U+253F
ENCODING 9535
SWIDTH 666 0
DWIDTH 4 0
BBX 4 8 0 -1
BITMAP
40
40
40
F0
F0
40
40
40
ENDCHAR
STARTCHAR U+2540
ENCODING 9536
SWIDTH 666 0
DWIDTH 4 0
BBX 4 8 0 -1
BITMAP
60
60
60
60
F0
40
40
40
ENDCHAR
STARTCHAR U+2541
ENCODING 9537
SWIDTH 666 0
DWIDTH 4 0
BBX 4 8 0 -1
BITMAP
40
40
40
40
F0
60
60
60
ENDCHAR
STARTCHAR U+2542
ENCODING 9538
SWIDTH 666 0
DWIDTH 4 0
BBX 4 8 0 -1
BITMAP
60
60
60
60
F0
60
60
60
ENDCHAR
STARTCHAR U+2543
ENCODING 9539
SWIDTH 666 0
DWIDTH 4 0
BBX 4 8 0 -1
BITMAP
60
60
60
E0
F0
40
40
40
ENDCHAR
STARTCHAR U+2544
ENCODING 9540
SWIDTH 666 0
DWIDTH 4 0
BBX 4 8 0 -1
BITMAP
60
60
60
70
F0
40
40
40
ENDCHAR
STARTCHAR U+2545
ENCODING 9541
SWIDTH 666 0
DWIDTH 4 0
BBX 4 8 0 -1
BITMAP
40
40
40
E0
F0
60
60
60
ENDCHAR
STARTCHAR U+2546
ENCODING 9542
SWIDTH 666 0
DWIDTH 4 0
BBX 4 8 0 -1
BITMAP
40
40
40
70
F0
60
60
60
ENDCHAR
STARTCHAR U+2547
ENCODING 9543
SWIDTH 666 0
DWIDTH 4 0
BBX 4 8 0 -1
BITMAP
60
60
60
F0
F0
40
40
40
ENDCHAR
STARTCHAR U+2548
ENCODING 9544
SWIDTH 666 0
DWIDTH 4 0
BBX 4 8 0 -1
BITMAP
40
40
40
F0
F0
60
60
60
ENDCHAR
STARTCHAR U+2549
ENCODING 9545
SWIDTH 666 0
DWIDTH 4 0
BBX 4 8 0 -1
BITMAP
60
60
60
E0
F0
60
60
60
ENDCHAR
STARTCHAR U+254A
ENCODING 9546
SWIDTH 666 0
DWIDTH 4 0
BBX 4 8 0 -1
BITMAP
60
60
60
70
F0
60
60
60
ENDCHAR
STARTCHAR U+254B
ENCODING 9547
SWIDTH 666 0
DWIDTH 4 0
BBX 4 8 0 -1
BITMAP
60
60
60
F0
F0
60
60
60
ENDCHAR
STARTCHAR U+254C
ENCODING 9548
SWIDTH 666 0
DWIDTH 4 0
BBX 4 1 0 2
BITMAP
D0
ENDCHAR
STARTCHAR U+254D
ENCODING 9549
SWIDTH 666 0
DWIDTH 4 0
BBX 4 2 0 2
BITMAP
D0
D0
ENDCHAR
STARTCHAR U+254E
ENCODING 9550
SWIDTH 666 0
DWIDTH 4 0
BBX 1 8 1 -1
BITMAP
80
80
80
00
80
80
80
80
ENDCHAR
STARTCHAR U+254F
ENCODING 9551
SWIDTH 666 0
DWIDTH 4 0
BBX 2 8 1 -1
BITMAP
C0
C0
C0
00
C0
C0
C0
C0
ENDCHAR
STARTCHAR U+2550
ENCODING 9552
SWIDTH 666 0
DWIDTH 4 0
BBX 4 3 0 2
BITMAP
F0
00
F0
ENDCHAR
STARTCHAR U+2551
ENCODING 9553
SWIDTH 666 0
DWIDTH 4 0
BBX 3 8 1 -1
BITMAP
A0
A0
A0
A0
A0
A0
A0
A0
ENDCHAR
STARTCHAR U+2552
ENCODING 9554
SWIDTH 666 0
DWIDTH 4 0
BBX 3 6 1 -1
BITMAP
E0
80
E0
80
80
80
ENDCHAR
STARTCHAR U+2553
ENCODING 9555
SWIDTH 666 0
DWIDTH 4 0
BBX 3 4 1 -1
BITMAP
E0
A0
A0
A0
ENDCHAR
STARTCHAR U+2554
ENCODING 9556
SWIDTH 666 0
DWIDTH 4 0
BBX 3 6 1 -1
BITMAP
E0
80
A0
A0
A0
A0
ENDCHAR
STARTCHAR U+2555
ENCODING 9557
SWIDTH 666 0
DWIDTH 4 0
BBX 2 6 0 -1
BITMAP
C0
40
C0
40
40
40
ENDCHAR
STARTCHAR U+2556
ENCODING 9558
SWIDTH 666 0
DWIDTH 4 0
BBX 4 4 0 -1
BITMAP
F0
50
50
50
ENDCHAR
STARTCHAR U+2557
ENCODING 9559
SWIDTH 666 0
DWIDTH 4 0
BBX 4 6 0 -1
BITMAP
F0
10
D0
50
50
50
ENDCHAR
STARTCHAR U+2558
ENCODING 9560
SWIDTH 666 0
DWIDTH 4 0
BBX 3 5 1 2
BITMAP
80
80
E0
80
E0
ENDCHAR
STARTCHAR U+2559
ENCODING 9561
SWIDTH 666 0
DWIDTH 4 0
BBX 3 5 1 2
BITMAP
A0
A0
A0
A0
E0
ENDCHAR
STARTCHAR U+255A
ENCODING 9562
SWIDTH 666 0
DWIDTH 4 0
BBX 3 5 1 2
BITMAP
A0
A0
A0
80
E0
ENDCHAR
STARTCHAR U+255B
ENCODING 9563
SWIDTH 666 0
DWIDTH 4 0
BBX 2 5 0 2
BITMAP
40
40
C0
40
C0
ENDCHAR
STARTCHAR U+255C
ENCODING 9564
SWIDTH 666 0
DWIDTH 4 0
BBX 4 5 0 2
BITMAP
50
50
50
50
F0
ENDCHAR
STARTCHAR U+255D
ENCODING 9565
SWIDTH 666 0
DWIDTH 4 0
BBX 4 5 0 2
BITMAP
50
50
D0
10
F0
ENDCHAR
STARTCHAR U+255E
ENCODING 9566
SWIDTH 666 0
DWIDTH 4 0
BBX 3 8 1 -1
BITMAP
80
80
E0
80
E0
80
80
80
ENDCHAR
STARTCHAR U+255F
ENCODING 9567
SWIDTH 666 0
DWIDTH 4 0
BBX 3 8 1 -1
BITMAP
A0
A0
A0
A0
A0
A0
A0
A0
ENDCHAR
STARTCHAR U+2560
ENCODING 9568
SWIDTH 666 0
DWIDTH 4 0
BBX 3 8 1 -1
BITMAP
A0
A0
A0
80
A0
A0
A0
A0
ENDCHAR
STARTCHAR U+2561
ENCODING 9569
SWIDTH 666 0
DWIDTH 4 0
BBX 2 8 0 -1
BITMAP
40
40
C0
40
C0
40
40
40
ENDCHAR
STARTCHAR U+2562
ENCODING 9570
SWIDTH 666 0
DWIDTH 4 0
BBX 4 8 0 -1
BITMAP
50
50
50
50
D0
50
50
50
ENDCHAR
STARTCHAR U+2563
ENCODING 9571
SWIDTH 666 0
DWIDTH 4 0
BBX 4 8 0 -1
BITMAP
50
50
D0
10
D0
50
50
50
ENDCHAR
STARTCHAR U+2564
ENCODING 9572
SWIDTH 666 0
DWIDTH 4 0
BBX 4 6 0 -1
BITMAP
F0
00
F0
40
40
40
ENDCHAR
STARTCHAR U+2565
ENCODING 9573
SWIDTH 666 0
DWIDTH 4 0
BBX 4 4 0 -1
BITMAP
F0
50
50
50
ENDCHAR
STARTCHAR U+2566
ENCODING 9574
SWIDTH 666 0
DWIDTH 4 0
BBX 4 6 0 -1
BITMAP
F0
00
D0
50
50
50
ENDCHAR
STARTCHAR U+2567
ENCODING 9575
SWIDTH 666 0
DWIDTH 4 0
BBX 4 5 0 2
BITMAP
40
40
F0
00
F0
ENDCHAR
STARTCHAR U+2568
ENCODING 9576
SWIDTH 666 0
DWIDTH 4 0
BBX 4 5 0 2
BITMAP
50
50
50
50
F0
ENDCHAR
STARTCHAR U+2569
ENCODING 9577
SWIDTH 666 0
DWIDTH 4 0
BBX 4 5 0 2
BITMAP
50
50
D0
00
F0
ENDCHAR
STARTCHAR U+256A
ENCODING 9578
SWIDTH 666 0
DWIDTH 4 0
BBX 4 8 0 -1
BITMAP
40
40
F0
40
F0
40
40
40
ENDCHAR
STARTCHAR U+256B
ENCODING 9579
SWIDTH 666 0
DWIDTH 4 0
BBX 4 8 0 -1
BITMAP
50
50
50
50
F0
50
50
50
ENDCHAR
STARTCHAR U+256C
ENCODING 9580
SWIDTH 666 0
DWIDTH 4 0
BBX 4 8 0 -1
BITMAP
50
50
D0
00
D0
50
50
50
ENDCHAR
STARTCHAR U+256D
ENCODING 9581
SWIDTH 666 0
DWIDTH 4 0
BBX 3 4 1 -1
BITMAP
60
C0
80
80
ENDCHAR
STARTCHAR U+256E
ENCODING 9582
SWIDTH 666 0
DWIDTH 4 0
BBX 2 4 0 -1
BITMAP
80
C0
40
40
ENDCHAR
STARTCHAR U+256F
ENCODING 9583
SWIDTH 666 0
DWIDTH 4 0
BBX 2 5 0 2
BITMAP
40
40
40
C0
80
ENDCHAR
STARTCHAR U+2570
ENCODING 9584
SWIDTH 666 0
DWIDTH 4 0
BBX 3 5 1 2
BITMAP
80
80
80
C0
60
ENDCHAR
STARTCHAR U+2571
ENCODING 9585
SWIDTH 666 0
DWIDTH 4 0
BBX 4 8 0 -1
BITMAP
10
10
20
20
40
40
80
80
ENDCHAR
STARTCHAR U+2572
ENCODING 9586
SWIDTH 666 0
DWIDTH 4 0
BBX 4 8 0 -1
BITMAP
80
80
40
40
20
20
10
10
ENDCHAR
STARTCHAR U+2573
ENCODING 9587
SWIDTH 666 0
DWIDTH 4 0
BBX 4 8 0 -1
BITMAP
90
90
60
60
60
60
90
90
ENDCHAR
STARTCHAR U+2574
ENCODING 9588
SWIDTH 666 0
DWIDTH 4 0
BBX 2 1 0 2
BITMAP
C0
ENDCHAR
STARTCHAR U+2575
ENCODING 9589
SWIDTH 666 0
DWIDTH 4 0
BBX 1 4 1 3
BITMAP
80
80
80
80
ENDCHAR
STARTCHAR U+2576
ENCODING 9590
SWIDTH 666 0
DWIDTH 4 0
BBX 2 1 2 2
BITMAP
C0
ENDCHAR
STARTCHAR U+2577
ENCODING 9591
SWIDTH 666 0
DWIDTH 4 0
BBX 1 4 1 -1
BITMAP
80
80
80
80
ENDCHAR
STARTCHAR U+2578
ENCODING 9592
SWIDTH 666 0
DWIDTH 4 0
BBX 2 2 0 2
BITMAP
C0
C0
ENDCHAR
STARTCHAR U+2579
ENCODING 9593
SWIDTH 666 0
DWIDTH 4 0
BBX 2 4 1 3
BITMAP
C0
C0
C0
C0
ENDCHAR
STARTCHAR U+257A
ENCODING 9594
SWIDTH 666 0
DWIDTH 4 0
BBX 2 2 2 2
BITMAP
C0
C0
ENDCHAR
STARTCHAR U+257B
ENCODING 9595
SWIDTH 666 0
DWIDTH 4 0
BBX 2 4 1 -1
BITMAP
C0
C0
C0
C0
ENDCHAR
STARTCHAR U+257C
ENCODING 9596
SWIDTH 666 0
DWIDTH 4 0
BBX 4 2 0 2
BITMAP
30
F0
ENDCHAR
STARTCHAR U+257D
ENCODING 9597
SWIDTH 666 0
DWIDTH 4 0
BBX 2 8 1 -1
BITMAP
80
80
80
80
C0
C0
C0
C0
ENDCHAR
STARTCHAR U+257E
ENCODING 9598
SWIDTH 666 0
DWIDTH 4 0
BBX 4 2 0 2
BITMAP
C0
F0
ENDCHAR
STARTCHAR U+257F
ENCODING 9599
SWIDTH 666 0
DWIDTH 4 0
BBX 2 8 1 -1
BITMAP
C0
C0
C0
C0
80
80
80
80
ENDCHAR
STARTCHAR U+2580
ENCODING 9600
SWIDTH 666 0
DWIDTH 4 0
BBX 4 4 0 3
BITMAP
F0
F0
F0
F0
ENDCHAR
STARTCHAR U+2581
ENCODING 9601
SWIDTH 666 0
DWIDTH 4 0
BBX 4 1 0 -1
BITMAP
F0
ENDCHAR
STARTCHAR U+2582
ENCODING 9602
SWIDTH 666 0
DWIDTH 4 0
BBX 4 2 0 -1
BITMAP
F0
F0
ENDCHAR
STARTCHAR U+2583
ENCODING 9603
SWIDTH 666 0
DWIDTH 4 0
BBX 4 3 0 -1
BITMAP
F0
F0
F0
ENDCHAR
STARTCHAR U+2584
ENCODING 9604
SWIDTH 666 0
DWIDTH 4 0
BBX 4 4 0 -1
BITMAP
F0
F0
F0
F0
ENDCHAR
STARTCHAR U+2585
ENCODING 9605
SWIDTH 666 0
DWIDTH 4 0
BBX 4 5 0 -1
BITMAP
F0
F0
F0
F0
F0
ENDCHAR
STARTCHAR U+2586
ENCODING 9606
SWIDTH 666 0
DWIDTH 4 0
BBX 4 6 0 -1
BITMAP
F0
F0
F0
F0
F0
F0
ENDCHAR
STARTCHAR U+2587
ENCODING 9607
SWIDTH 666 0
DWIDTH 4 0
BBX 4 7 0 -1
BITMAP
F0
F0
F0
F0
F0
F0
F0
ENDCHAR
STARTCHAR U+2588
ENCODING 9608
SWIDTH 666 0
DWIDTH 4 0
BBX 4 8 0 -1
BITMAP
F0
F0
F0
F0
F0
F0
F0
F0
ENDCHAR
STARTCHAR U+2589
ENCODING 9609
SWIDTH 666 0
DWIDTH 4 0
BBX 4 8 0 -1
BITMAP
F0
F0
F0
F0
F0
F0
F0
F0
ENDCHAR
STARTCHAR U+258A
ENCODING 9610
SWIDTH 666 0
DWIDTH 4 0
BBX 3 8 0 -1
BITMAP
E0
E0
E0
E0
E0
E0
E0
E0
ENDCHAR
STARTCHAR U+258B
ENCODING 9611
SWIDTH 666 0
DWIDTH 4 0
BBX 3 8 0 -1
BITMAP
E0
E0
E0
E0
E0
E0
E0
E0
ENDCHAR
STARTCHAR U+258C
ENCODING 9612
SWIDTH 666 0
DWIDTH 4 0
BBX 2 8 0 -1
BITMAP
C0
C0
C0
C0
C0
C0
C0
C0
ENDCHAR
STARTCHAR U+258D
ENCODING 9613
SWIDTH 666 0
DWIDTH 4 0
BBX 2 8 0 -1
BITMAP
C0
C0
C0
C0
C0
C0
C0
C0
ENDCHAR
STARTCHAR U+258E
ENCODING 9614
SWIDTH 666 0
DWIDTH 4 0
BBX 1 8 0 -1
BITMAP
80
80
80
80
80
80
80
80
ENDCHAR
STARTCHAR U+258F
ENCODING 9615
SWIDTH 666 0
DWIDTH 4 0
BBX 1 8 0 -1
BITMAP
80
80
80
80
80
80
80
80
ENDCHAR
STARTCHAR U+2590
ENCODING 9616
SWIDTH 666 0
DWIDTH 4 0
BBX 2 8 2 -1
BITMAP
C0
C0
C0
C0
C0
C0
C0
C0
ENDCHAR
STARTCHAR U+2591
ENCODING 9617
SWIDTH 666 0
DWIDTH 4 0
BBX 3 8 0 -1
BITMAP
80
20
80
20
80
20
80
20
ENDCHAR
STARTCHAR U+2592
ENCODING 9618
SWIDTH 666 0
DWIDTH 4 0
BBX 4 8 0 -1
BITMAP
A0
50
A0
50
A0
50
A0
50
ENDCHAR
STARTCHAR U+2593
ENCODING 9619
SWIDTH 666 0
DWIDTH 4 0
BBX 4 8 0 -1
BITMAP
B0
E0
B0
E0
B0
E0
B0
E0
ENDCHAR
STARTCHAR U+2594
ENCODING 9620
SWIDTH 666 0
DWIDTH 4 0
BBX 4 1 0 6
BITMAP
F0
ENDCHAR
STARTCHAR U+2595
ENCODING 9621
SWIDTH 666 0
DWIDTH 4 0
BBX 1 8 3 -1
BITMAP
80
80
80
80
80
80
80
80
ENDCHAR
STARTCHAR U+2596
ENCODING 9622
SWIDTH 666 0
DWIDTH 4 0
BBX 2 4 0 -1
BITMAP
C0
C0
C0
C0
ENDCHAR
STARTCHAR U+2597
ENCODING 9623
SWIDTH 666 0
DWIDTH 4 0
BBX 2 4 2 -1
BITMAP
C0
C0
C0
C0
ENDCHAR
STARTCHAR U+2598
ENCODING 9624
SWIDTH 666 0
DWIDTH 4 0
BBX 2 4 0 3
BITMAP
C0
C0
C0
C0
ENDCHAR
STARTCHAR U+2599
ENCODING 9625
SWIDTH 666 0
DWIDTH 4 0
BBX 4 8 0 -1
BITMAP
C0
C0
C0
C0
F0
F0
F0
F0
ENDCHAR
STARTCHAR U+259A
ENCODING 9626
SWIDTH 666 0
DWIDTH 4 0
BBX 4 8 0 -1
BITMAP
C0
C0
C0
C0
30
30
30
30
ENDCHAR
STARTCHAR U+259B
ENCODING 9627
SWIDTH 666 0
DWIDTH 4 0
BBX 4 8 0 -1
BITMAP
F0
F0
F0
F0
C0
C0
C0
C0
ENDCHAR
STARTCHAR U+259C
ENCODING 9628
SWIDTH 666 0
DWIDTH 4 0
BBX 4 8 0 -1
BITMAP
F0
F0
F0
F0
30
30
30
30
ENDCHAR
STARTCHAR U+259D
ENCODING 9629
SWIDTH 666 0
DWIDTH 4 0
BBX 2 4 2 3
BITMAP
C0
C0
C0
C0
ENDCHAR
STARTCHAR U+259E
ENCODING 9630
SWIDTH 666 0
DWIDTH 4 0
BBX 4 8 0 -1
BITMAP
30
30
30
30
C0
C0
C0
C0
ENDCHAR
STARTCHAR U+259F
ENCODING 9631
SWIDTH 666 0
DWIDTH 4 0
BBX 4 8 0 -1
BITMAP
30
30
30
30
F0
F0
F0
F0
ENDCHAR
STARTCHAR U+25A0
ENCODING 9632
SWIDTH 666 0
DWIDTH 4 0
BBX 3 3 0 1
BITMAP
E0
E0
E0
ENDCHAR
STARTCHAR U+25A1
ENCODING 9633
SWIDTH 666 0
DWIDTH 4 0
BBX 3 3 0 1
BITMAP
E0
A0
E0
ENDCHAR
STARTCHAR U+25B2
ENCODING 9650
SWIDTH 666 0
DWIDTH 4 0
BBX 3 5 0 1
BITMAP
40
40
E0
E0
E0
ENDCHAR
STARTCHAR U+25B3
ENCODING 9651
SWIDTH 666 0
DWIDTH 4 0
BBX 3 5 0 1
BITMAP
40
40
A0
A0
E0
ENDCHAR
STARTCHAR U+25B4
ENCODING 9652
SWIDTH 666 0
DWIDTH 4 0
BBX 3 4 0 1
BITMAP
40
40
E0
E0
ENDCHAR
STARTCHAR U+25B5
ENCODING 9653
SWIDTH 666 0
DWIDTH 4 0
BBX 3 4 0 1
BITMAP
40
40
A0
E0
ENDCHAR
STARTCHAR U+25B6
ENCODING 9654
SWIDTH 666 0
DWIDTH 4 0
BBX 3 5 0 0
BITMAP
80
C0
E0
C0
80
ENDCHAR
STARTCHAR U+25B7
ENCODING 9655
SWIDTH 666 0
DWIDTH 4 0
BBX 3 5 0 0
BITMAP
80
C0
A0
C0
80
ENDCHAR
STARTCHAR U+25B8
ENCODING 9656
SWIDTH 666 0
DWIDTH 4 0
BBX 3 3 0 1
BITMAP
80
E0
80
ENDCHAR
STARTCHAR U+25B9
ENCODING 9657
SWIDTH 666 0
DWIDTH 4 0
BBX 3 3 0 1
BITMAP
80
E0
80
ENDCHAR
STARTCHAR U+25BA
ENCODING 9658
SWIDTH 666 0
DWIDTH 4 0
BBX 3 3 0 1
BITMAP
80
E0
80
ENDCHAR
STARTCHAR U+25BB
ENCODING 9659
SWIDTH 666 0
DWIDTH 4 0
BBX 3 3 0 1
BITMAP
80
E0
80
ENDCHAR
STARTCHAR U+25BC
ENCODING 9660
SWIDTH 666 0
DWIDTH 4 0
BBX 3 5 0 1
BITMAP
E0
E0
E0
40
40
ENDCHAR
STARTCHAR U+25BD
ENCODING 9661
SWIDTH 666 0
DWIDTH 4 0
BBX 3 5 0 1
BITMAP
E0
A0
A0
40
40
ENDCHAR
STARTCHAR U+25BE
ENCODING 9662
SWIDTH 666 0
DWIDTH 4 0
BBX 3 4 0 1
BITMAP
E0
E0
40
40
ENDCHAR
STARTCHAR U+25BF
ENCODING 9663
SWIDTH 666 0
DWIDTH 4 0
BBX 3 4 0 1
BITMAP
E0
A0
40
40
ENDCHAR
STARTCHAR U+25C0
ENCODING 9664
SWIDTH 666 0
DWIDTH 4 0
BBX 3 5 0 0
BITMAP
20
60
E0
60
20
ENDCHAR
STARTCHAR U+25C1
ENCODING 9665
SWIDTH 666 0
DWIDTH 4 0
BBX 3 5 0 0
BITMAP
20
60
A0
60
20
ENDCHAR
STARTCHAR U+25C2
ENCODING 9666
SWIDTH 666 0
DWIDTH 4 0
BBX 3 3 0 1
BITMAP
20
E0
20
ENDCHAR
STARTCHAR U+25C3
ENCODING 9667
SWIDTH 666 0
DWIDTH 4 0
BBX 3 3 0 1
BITMAP
20
E0
20
ENDCHAR
STARTCHAR U+25C4
ENCODING 9668
SWIDTH 666 0
DWIDTH 4 0
BBX 3 3 0 1
BITMAP
20
E0
20
ENDCHAR
STARTCHAR U+25C5
ENCODING 9669
SWIDTH 666 0
DWIDTH 4 0
BBX 3 3 0 1
BITMAP
20
E0
20
ENDCHAR
STARTCHAR U+25C6
ENCODING 9670
SWIDTH 666 0
DWIDTH 4 0
BBX 3 4 0 1
BITMAP
40
E0
E0
40
ENDCHAR
STARTCHAR U+25C7
ENCODING 9671
SWIDTH 666 0
DWIDTH 4 0
BBX 3 4 0 1
BITMAP
40
A0
A0
40
ENDCHAR
STARTCHAR U+25C8
ENCODING 9672
SWIDTH 666 0
DWIDTH 4 0
BBX 3 4 0 1
BITMAP
40
E0
E0
40
ENDCHAR
ENDFONT
